<svg width="1080" height="1080" viewBox="0 0 1080 1080" fill="none" xmlns="http://www.w3.org/2000/svg">
<path d="M966.866 313.145C969.732 311.291 974.535 308.863 977.537 307.731C981.071 306.408 986.611 305.808 993.229 306.054C1000.31 306.313 1005.36 307.336 1009.6 309.381C1012.99 311.004 1018.43 314.973 1021.71 318.219C1024.98 321.464 1028.93 326.565 1030.45 329.565C1032.27 333.111 1033.46 338.607 1033.84 345.248C1034.3 353.226 1033.82 357.127 1031.67 362.977C1030.06 367.355 1026.44 373.055 1023 376.669C1019.76 380.065 1014.04 384.347 1010.29 386.188C1004.71 388.916 1001.36 389.53 991.865 389.543C982.067 389.571 979.106 389.011 972.761 385.943C968.64 383.952 963.155 379.956 960.576 377.078C958.011 374.201 954.381 368.459 952.511 364.341C950.001 358.79 949.114 354.536 949.127 347.976C949.141 341.825 950.069 337.025 952.17 332.293C953.835 328.542 956.646 323.455 958.434 320.987C960.207 318.519 964.015 314.986 966.866 313.145Z" fill="#FEBD39" fill-opacity="0.98"/>
<path d="M54.7508 337.857C58.1621 333.915 63.3883 329.838 67.3865 327.983C71.8758 325.897 76.7882 324.806 81.7142 324.792C85.8487 324.778 92.2894 325.665 96.0419 326.769C99.8626 327.888 105.471 331.038 108.8 333.943C112.062 336.779 116.21 342.18 121.286 352.749V496.285C121.286 632.183 121.149 640.134 118.802 645.616C117.424 648.808 114.204 653.799 111.639 656.704C109.06 659.609 103.888 663.564 100.136 665.473C94.8411 668.173 91.1841 668.978 83.761 669.046C76.2014 669.128 72.7901 668.432 67.3865 665.746C63.634 663.877 58.4487 660.195 55.8697 657.563C53.3044 654.931 49.9203 650.021 48.3647 646.639C45.5947 640.584 45.5538 638.62 45.1444 500.717C44.7896 378.319 44.9943 359.909 46.8364 352.749C48.3374 346.912 50.6026 342.644 54.7508 337.857Z" fill="#FEBD39" fill-opacity="0.98"/>
<path fill-rule="evenodd" clip-rule="evenodd" d="M297.312 326.524C302.879 326.769 308.46 328.01 312.322 329.851C315.706 331.461 320.537 334.816 323.061 337.311C325.599 339.807 329.12 344.907 330.894 348.658C333.186 353.499 334.127 357.849 334.114 363.659C334.1 368.896 333.104 374.051 331.344 377.979C329.256 382.615 314.328 398.339 212.028 500.512L216.708 505.722C219.287 508.599 240.547 531.811 263.963 557.313C287.378 582.815 308.829 606.449 311.64 609.818C314.437 613.2 317.576 617.646 318.613 619.705C319.663 621.764 320.891 626.06 321.355 629.251C321.888 632.893 321.41 637.843 320.059 642.548C318.749 647.13 315.911 652.353 312.731 655.981C309.88 659.24 304.476 663.359 300.723 665.118C295.743 667.464 291.513 668.323 285.031 668.323C278.304 668.309 274.224 667.423 268.138 664.641C261.083 661.409 257.195 657.74 236.044 634.365C222.794 619.746 201.712 596.412 189.199 582.543C176.673 568.673 166.862 556.795 167.394 556.181C167.926 555.554 167.749 555.226 166.998 555.472C166.248 555.704 161.949 552.049 157.446 547.358C152.943 542.653 149.559 538.82 149.941 538.82C150.323 538.82 147.24 535.316 143.105 531.02C138.97 526.724 132.366 519.687 121.286 507.536L121.968 488.784L169.045 439.866C194.944 412.959 228.089 378.674 242.717 363.673C257.345 348.658 271.154 334.993 273.419 333.302C275.684 331.611 279.982 329.292 282.984 328.174C286.341 326.919 291.854 326.278 297.312 326.524ZM783.772 408.65C795.002 409.018 805.264 410.204 811.745 411.854C817.367 413.3 826.892 416.532 832.896 419.028C838.9 421.537 848.11 426.392 853.364 429.829C858.617 433.265 867.432 440.343 872.958 445.553C878.485 450.762 885.963 459.027 889.579 463.895C893.195 468.778 898.612 477.983 901.614 484.352C904.602 490.734 908.396 500.853 910.033 506.854C912.039 514.259 913.226 523.451 913.704 535.493C914.127 546.13 913.772 557.313 912.803 563.45C911.916 569.082 910.62 574.292 909.924 575.042C909.214 575.792 908.969 576.719 909.351 577.088C909.733 577.456 908.177 582.993 905.885 589.361C903.579 595.73 899.035 605.249 895.76 610.5C892.499 615.75 885.294 624.887 879.781 630.806C874.255 636.725 866.054 644.198 861.551 647.403C857.048 650.608 848.138 655.736 841.765 658.79C835.393 661.845 825.254 665.623 819.25 667.177C813.055 668.8 802.139 670.287 794.006 670.641C786.133 670.969 775.066 670.56 769.444 669.714C763.809 668.869 754.598 666.727 748.976 664.955C743.341 663.182 734.444 659.077 719.638 649.953V746.876L716.077 753.694C714.112 757.445 710.428 762.3 707.89 764.468C705.338 766.65 700.808 769.555 697.806 770.919C694.244 772.542 689.045 773.428 682.796 773.455C675.018 773.496 671.852 772.814 665.753 769.746C661.25 767.482 656.474 763.65 653.813 760.172C651.37 756.981 648.819 752.072 648.164 749.262C647.495 746.453 647.031 692.898 647.318 516.4L650.415 505.49C652.107 499.49 655.696 489.984 658.384 484.352C661.059 478.733 666.23 469.828 669.86 464.577C673.503 459.327 680.667 450.994 685.77 446.071C690.887 441.148 698.761 434.629 703.264 431.602C707.767 428.574 714.521 424.551 718.274 422.655C722.026 420.773 729.695 417.555 735.331 415.509C740.953 413.464 750.163 410.954 755.799 409.931C762.485 408.718 772.187 408.268 783.772 408.65ZM751.2 484.406C747.543 486.247 742.317 489.657 739.602 491.962C736.873 494.28 732.451 499.49 729.763 503.554C727.062 507.618 723.841 513.55 722.599 516.741C721.344 519.932 719.734 526.683 718.997 531.742C718.11 537.948 718.165 544.057 719.147 550.494C719.966 555.745 722.258 563.723 724.264 568.223C726.311 572.833 731.169 579.883 735.372 584.356C740.079 589.375 746.097 593.944 751.705 596.753C756.754 599.276 764.982 601.949 770.809 602.944C778.791 604.308 783.144 604.335 790.595 603.108C795.848 602.235 803.831 599.835 808.334 597.762C812.837 595.703 819.496 591.271 823.125 587.929C826.755 584.588 831.64 578.792 833.987 575.042C836.348 571.292 839.363 564.691 840.701 560.381C842.106 555.84 843.116 548.38 843.102 542.653C843.075 537.211 842.42 530.011 841.629 526.628C840.837 523.26 838.572 517.123 836.58 512.991C834.601 508.872 829.511 501.808 825.268 497.308C821.038 492.807 814.256 487.325 810.217 485.129C806.178 482.947 799.805 480.342 796.053 479.36C792.3 478.365 784.932 477.601 779.678 477.642C774.425 477.683 767.37 478.474 763.986 479.388C760.602 480.301 754.857 482.565 751.2 484.406ZM379.526 412.182C383.087 412.127 389.228 413.259 393.171 414.705C398.043 416.491 402.3 419.45 406.476 423.965C410.515 428.315 413.203 432.788 414.322 437.016C415.563 441.68 416.027 459.559 416.014 502.422C416.014 551.449 416.369 562.782 418.142 569.587C419.316 574.087 422.236 580.783 424.624 584.452C427.026 588.134 431.133 592.839 433.766 594.912C436.4 596.985 441.299 599.931 444.683 601.431C448.067 602.944 455.122 604.895 460.375 605.767C467.594 606.981 472.083 606.995 478.796 605.808C483.668 604.949 490.736 602.794 494.489 601.022C498.241 599.249 504.068 595.089 507.452 591.775C510.836 588.461 515.434 582.106 521.78 569.587L522.462 503.444C523.117 439.348 523.24 437.138 526.037 431.847C527.633 428.847 531.168 424.401 533.883 421.96C536.612 419.519 540.829 416.518 543.271 415.305C545.714 414.077 551.09 412.754 555.211 412.386C560.41 411.909 565.022 412.454 570.221 414.186C574.342 415.55 580.127 418.864 583.061 421.537C585.995 424.21 589.816 429.46 594.755 440.03L594.769 504.467C594.783 558.199 594.414 570.664 592.599 579.474C591.399 585.284 588.915 594.025 587.087 598.908C585.244 603.79 581.219 611.754 578.163 616.637C575.092 621.519 569.743 628.774 566.277 632.77C562.825 636.766 555.688 643.298 550.435 647.294C545.181 651.276 536.585 656.677 531.331 659.268C526.078 661.859 517.781 665.255 512.91 666.823C508.039 668.378 500.656 670.287 496.535 671.078C492.415 671.869 487.802 672.496 486.301 672.483C484.8 672.469 480.502 672.851 476.75 673.328C472.997 673.819 463.172 673.478 454.917 672.578C446.661 671.692 434.844 669.469 428.649 667.655C422.454 665.855 413.558 662.459 408.864 660.113C404.17 657.781 396.651 653.254 392.148 650.049C387.645 646.844 380.549 640.625 376.387 636.234C372.212 631.829 366.726 625.16 364.175 621.41C361.623 617.659 357.557 610.295 355.128 605.045C352.685 599.794 349.329 590.275 347.664 583.906C344.785 572.914 344.594 569.014 344.02 508.9C343.488 453.531 343.693 444.489 345.603 437.643C347.268 431.711 349.383 428.206 354.282 423.228C358.116 419.341 363.274 415.768 366.904 414.473C370.288 413.273 375.964 412.236 379.526 412.182ZM992.547 412.482C998.674 412.823 1004.05 414.023 1007.56 415.823C1010.56 417.378 1014.94 420.705 1017.3 423.201C1019.65 425.71 1022.72 429.911 1024.12 432.529C1026.52 437.043 1026.67 442.812 1027.03 538.22C1027.34 627.274 1027.14 639.861 1025.24 645.276C1024.05 648.658 1021.35 653.567 1019.24 656.186C1017.12 658.804 1012.4 662.473 1008.74 664.314C1004.35 666.537 999.111 667.832 993.229 668.187C986.912 668.555 982.6 668.009 978.219 666.264C974.835 664.927 969.705 661.654 966.798 658.981C963.892 656.322 960.207 651.685 958.611 648.685C955.718 643.257 955.704 642.671 955.704 540.266C955.704 437.316 955.704 437.302 958.652 431.847C960.276 428.847 963.66 424.428 966.157 422.042C968.668 419.641 973.471 416.396 976.855 414.827C981.74 412.55 984.947 412.073 992.547 412.482Z" fill="#343166" fill-opacity="0.99"/>
</svg>
